<?xml version="1.0" encoding="utf-8"?>
<!-- Generator: Adobe Illustrator 23.0.0, SVG Export Plug-In . SVG Version: 6.00 Build 0)  -->
<svg version="1.1" id="图层_1" xmlns="http://www.w3.org/2000/svg" xmlns:xlink="http://www.w3.org/1999/xlink" x="0px" y="0px"
	 viewBox="0 0 100 100" style="enable-background:new 0 0 100 100;" xml:space="preserve">
<style type="text/css">
	.st0{fill:url(#SVGID_1_);}
	.st1{fill:none;stroke:url(#SVGID_2_);stroke-width:14;stroke-linecap:round;stroke-miterlimit:10;}
	.st2{fill:none;stroke:url(#SVGID_3_);stroke-width:14;stroke-linecap:round;stroke-miterlimit:10;}
	.st3{fill:#FF6C6F;}
	.st4{clip-path:url(#SVGID_5_);fill:#FFFFFF;}
</style>
<linearGradient id="SVGID_1_" gradientUnits="userSpaceOnUse" x1="49.6848" y1="14.6142" x2="50.3171" y2="85.5994">
	<stop  offset="0" style="stop-color:#FF6E6E"/>
	<stop  offset="0.4108" style="stop-color:#FC8A64"/>
	<stop  offset="1" style="stop-color:#F7B854"/>
</linearGradient>
<circle class="st0" cx="50" cy="50" r="35.39"/>
<g>
	
		<linearGradient id="SVGID_2_" gradientUnits="userSpaceOnUse" x1="68.8615" y1="2.3931" x2="68.8615" y2="99.6572" gradientTransform="matrix(0.7071 0.7071 -0.7071 0.7071 52.4749 -19.6856)">
		<stop  offset="0" style="stop-color:#F7B854"/>
		<stop  offset="1" style="stop-color:#FF6B6F"/>
	</linearGradient>
	<path class="st1" d="M79.81,20.93c16.26,16.26,16.26,42.62,0,58.88s-42.62,16.26-58.88,0"/>
	
		<linearGradient id="SVGID_3_" gradientUnits="userSpaceOnUse" x1="62.8113" y1="2.3931" x2="62.8113" y2="99.6572" gradientTransform="matrix(-0.7071 -0.7071 -0.7071 0.7071 115.4074 43.247)">
		<stop  offset="0" style="stop-color:#FF6B6F"/>
		<stop  offset="1" style="stop-color:#F7B854"/>
	</linearGradient>
	<path class="st2" d="M79.07,20.19c-16.26-16.26-42.62-16.26-58.88,0s-16.26,42.62,0,58.88"/>
	<circle class="st3" cx="20.56" cy="79.44" r="7.29"/>
</g>
<g>
	<g>
		<defs>
			<rect id="SVGID_4_" x="30" y="30" width="40" height="40"/>
		</defs>
		<clipPath id="SVGID_5_">
			<use xlink:href="#SVGID_4_"  style="overflow:visible;"/>
		</clipPath>
		<path class="st4" d="M52.38,31.56l4.13,8.7c0.38,0.82,1.13,1.37,2,1.51l9.21,1.4c2.18,0.33,3.04,3.12,1.47,4.72l-6.66,6.8
			c-0.62,0.64-0.91,1.55-0.75,2.46l1.58,9.57c0.38,2.26-1.91,3.99-3.86,2.92l-8.26-4.54c-0.78-0.42-1.69-0.42-2.46,0l-8.24,4.52
			c-1.95,1.06-4.22-0.66-3.86-2.92l1.58-9.57c0.16-0.91-0.13-1.82-0.75-2.46L30.8,47.9c-1.58-1.59-0.71-4.38,1.47-4.72l9.21-1.4
			c0.87-0.13,1.62-0.69,2-1.51l4.13-8.7C48.59,29.5,51.41,29.5,52.38,31.56L52.38,31.56z M52.38,31.56"/>
	</g>
</g>
</svg>
