<?xml version="1.0" encoding="utf-8"?>
<!-- Generator: Adobe Illustrator 23.0.0, SVG Export Plug-In . SVG Version: 6.00 Build 0)  -->
<svg version="1.1" xmlns="http://www.w3.org/2000/svg" xmlns:xlink="http://www.w3.org/1999/xlink" x="0px" y="0px"
	 viewBox="0 0 30 30" style="enable-background:new 0 0 30 30;" xml:space="preserve">
<style type="text/css">
	.st0{fill:url(#SVGID_1_);}
	.st1{fill:url(#SVGID_2_);}
	.st2{fill:url(#SVGID_3_);}
	.st3{fill:url(#SVGID_4_);}
</style>
<g id="图层_1">
</g>
<g id="图层_2">
	<g>
		<linearGradient id="SVGID_1_" gradientUnits="userSpaceOnUse" x1="7.5429" y1="18.0429" x2="22.4571" y2="32.9571">
			<stop  offset="0" style="stop-color:#2F6DFF"/>
			<stop  offset="1" style="stop-color:#205AFF"/>
		</linearGradient>
		<path class="st0" d="M27,23H3c-0.55,0-1,0.45-1,1v3c0,0.55,0.45,1,1,1h24c0.55,0,1-0.45,1-1v-3C28,23.45,27.55,23,27,23z M25,26.5
			c-0.55,0-1-0.45-1-1c0-0.55,0.45-1,1-1s1,0.45,1,1C26,26.05,25.55,26.5,25,26.5z"/>
		<linearGradient id="SVGID_2_" gradientUnits="userSpaceOnUse" x1="7.5429" y1="11.9737" x2="22.4571" y2="26.8879">
			<stop  offset="0" style="stop-color:#3A7CFF"/>
			<stop  offset="1" style="stop-color:#2D65FF"/>
		</linearGradient>
		<path class="st1" d="M27,16.93H3c-0.55,0-1,0.45-1,1v3c0,0.55,0.45,1,1,1h24c0.55,0,1-0.45,1-1v-3C28,17.38,27.55,16.93,27,16.93z
			 M25,20.43c-0.55,0-1-0.45-1-1c0-0.55,0.45-1,1-1s1,0.45,1,1C26,19.98,25.55,20.43,25,20.43z"/>
		<linearGradient id="SVGID_3_" gradientUnits="userSpaceOnUse" x1="7.5429" y1="5.9737" x2="22.4571" y2="20.8879">
			<stop  offset="0" style="stop-color:#4E95FF"/>
			<stop  offset="1" style="stop-color:#3676FF"/>
		</linearGradient>
		<path class="st2" d="M27,10.93H3c-0.55,0-1,0.45-1,1v3c0,0.55,0.45,1,1,1h24c0.55,0,1-0.45,1-1v-3C28,11.38,27.55,10.93,27,10.93z
			 M25,14.43c-0.55,0-1-0.45-1-1c0-0.55,0.45-1,1-1s1,0.45,1,1C26,13.98,25.55,14.43,25,14.43z"/>
		<linearGradient id="SVGID_4_" gradientUnits="userSpaceOnUse" x1="7.0688" y1="-1.4482" x2="22.931" y2="14.414">
			<stop  offset="0" style="stop-color:#4E95FF"/>
			<stop  offset="1" style="stop-color:#3676FF"/>
		</linearGradient>
		<path class="st3" d="M3,9.93h24c0.55,0,1-0.45,1-1l-1-6C26.86,2.42,26.55,2,26,2H4C3.45,2,3.14,2.42,3,2.93l-1,6
			C2,9.48,2.45,9.93,3,9.93z"/>
	</g>
</g>
</svg>
