<?xml version="1.0" encoding="utf-8"?>
<!-- Generator: Adobe Illustrator 23.0.0, SVG Export Plug-In . SVG Version: 6.00 Build 0)  -->
<svg version="1.1" id="图层_1" xmlns="http://www.w3.org/2000/svg" xmlns:xlink="http://www.w3.org/1999/xlink" x="0px" y="0px"
	 viewBox="0 0 100 100" style="enable-background:new 0 0 100 100;" xml:space="preserve">
<style type="text/css">
	.st0{fill:url(#SVGID_1_);}
	.st1{fill:none;stroke:url(#SVGID_2_);stroke-width:14;stroke-linecap:round;stroke-miterlimit:10;}
	.st2{fill:none;stroke:url(#SVGID_3_);stroke-width:14;stroke-linecap:round;stroke-miterlimit:10;}
	.st3{fill:#2661FF;}
	.st4{clip-path:url(#SVGID_5_);fill:#FFFFFF;}
</style>
<linearGradient id="SVGID_1_" gradientUnits="userSpaceOnUse" x1="49.7494" y1="14.6114" x2="50.3818" y2="85.5966">
	<stop  offset="0" style="stop-color:#205AFF"/>
	<stop  offset="0.4752" style="stop-color:#3676FF"/>
	<stop  offset="1" style="stop-color:#5199FF"/>
</linearGradient>
<circle class="st0" cx="50.06" cy="50" r="35.39"/>
<g>
	
		<linearGradient id="SVGID_2_" gradientUnits="userSpaceOnUse" x1="68.9053" y1="2.3454" x2="68.9053" y2="99.6095" gradientTransform="matrix(0.7071 0.7071 -0.7071 0.7071 52.4749 -19.6856)">
		<stop  offset="0" style="stop-color:#5199FF"/>
		<stop  offset="1" style="stop-color:#205AFF"/>
	</linearGradient>
	<path class="st1" d="M79.87,20.93c16.26,16.26,16.26,42.62,0,58.88s-42.62,16.26-58.88,0"/>
	
		<linearGradient id="SVGID_3_" gradientUnits="userSpaceOnUse" x1="62.7675" y1="2.3454" x2="62.7675" y2="99.6095" gradientTransform="matrix(-0.7071 -0.7071 -0.7071 0.7071 115.4074 43.247)">
		<stop  offset="0" style="stop-color:#205AFF"/>
		<stop  offset="1" style="stop-color:#5199FF"/>
	</linearGradient>
	<path class="st2" d="M79.13,20.19c-16.26-16.26-42.62-16.26-58.88,0S4,62.81,20.26,79.07"/>
	<circle class="st3" cx="20.63" cy="79.44" r="7.29"/>
</g>
<g>
	<g>
		<defs>
			<rect id="SVGID_4_" x="30.06" y="30" width="40" height="40"/>
		</defs>
		<clipPath id="SVGID_5_">
			<use xlink:href="#SVGID_4_"  style="overflow:visible;"/>
		</clipPath>
		<path class="st4" d="M52.45,31.56l4.13,8.7c0.38,0.82,1.13,1.37,2,1.51l9.21,1.4c2.18,0.33,3.04,3.12,1.47,4.72l-6.66,6.8
			c-0.62,0.64-0.91,1.55-0.75,2.46l1.58,9.57c0.38,2.26-1.91,3.99-3.86,2.92l-8.26-4.54c-0.78-0.42-1.69-0.42-2.46,0l-8.24,4.52
			c-1.95,1.06-4.22-0.66-3.86-2.92l1.58-9.57c0.16-0.91-0.13-1.82-0.75-2.46l-6.68-6.75c-1.58-1.59-0.71-4.38,1.47-4.72l9.21-1.4
			c0.87-0.13,1.62-0.69,2-1.51l4.13-8.7C48.65,29.5,51.47,29.5,52.45,31.56L52.45,31.56z M52.45,31.56"/>
	</g>
</g>
</svg>
