<?xml version="1.0" encoding="utf-8"?>
<!-- Generator: Adobe Illustrator 23.0.0, SVG Export Plug-In . SVG Version: 6.00 Build 0)  -->
<svg version="1.1" id="图层_2" xmlns="http://www.w3.org/2000/svg" xmlns:xlink="http://www.w3.org/1999/xlink" x="0px" y="0px"
	 viewBox="0 0 30 30" style="enable-background:new 0 0 30 30;" xml:space="preserve">
<style type="text/css">
	.st0{fill:#6791FF;}
	.st1{fill:url(#SVGID_1_);}
	.st2{fill:url(#SVGID_2_);}
	.st3{fill:url(#SVGID_3_);}
	.st4{fill:#215CFF;}
</style>
<g>
	<g>
		<path class="st0" d="M2,11.79H0v1h1l0,0h1l0,0l0,0V11.79L2,11.79z M4,11.79H3v1h1l0,0l0,0V11.79L4,11.79z M6,11.79H5v1h1l0,0l0,0
			V11.79L6,11.79z M8,11.79H7v1h1l0,0l0,0V11.79L8,11.79z M10,11.79H9v1h1l0,0l0,0V11.79L10,11.79z M12,11.79h-1v1h1l0,0l0,0V11.79
			L12,11.79z M14,11.79h-1v1h1l0,0l0,0V11.79L14,11.79z M16,11.79h-1v1h1l0,0l0,0V11.79L16,11.79z M18,11.79h-1v1h1l0,0l0,0V11.79
			L18,11.79z M20,11.79h-1v1h1l0,0l0,0V11.79L20,11.79z M22,11.79h-1v1h1l0,0l0,0V11.79L22,11.79z M24,11.79h-1v1h1l0,0l0,0V11.79
			L24,11.79z M26,11.79h-1v1h1l0,0l0,0V11.79L26,11.79z M28,11.79h-1v1h1l0,0l0,0V11.79L28,11.79z M30,11.79h-1v1h1V11.79L30,11.79z
			"/>
	</g>
	<linearGradient id="SVGID_1_" gradientUnits="userSpaceOnUse" x1="0.3579" y1="19.069" x2="8.2552" y2="26.9662">
		<stop  offset="0" style="stop-color:#397BFF"/>
		<stop  offset="1" style="stop-color:#2A66FF"/>
	</linearGradient>
	<path class="st1" d="M6.81,28h-5c-0.55,0-1-0.45-1-1v-7.96c0-0.55,0.45-1,1-1h5c0.55,0,1,0.45,1,1V27C7.81,27.55,7.36,28,6.81,28z"
		/>
	<linearGradient id="SVGID_2_" gradientUnits="userSpaceOnUse" x1="6.3491" y1="7.0426" x2="22.264" y2="22.9574">
		<stop  offset="0" style="stop-color:#488EFF"/>
		<stop  offset="1" style="stop-color:#225CFF"/>
	</linearGradient>
	<path class="st2" d="M16.81,28h-5c-0.55,0-1-0.45-1-1V3c0-0.55,0.45-1,1-1h5c0.55,0,1,0.45,1,1v24C17.81,27.55,17.36,28,16.81,28z"
		/>
	<linearGradient id="SVGID_3_" gradientUnits="userSpaceOnUse" x1="19.2674" y1="13.1771" x2="31.0925" y2="25.0023">
		<stop  offset="0" style="stop-color:#3170FF"/>
		<stop  offset="1" style="stop-color:#205AFF"/>
	</linearGradient>
	<path class="st3" d="M27.68,28h-5c-0.55,0-1-0.45-1-1V11.18c0-0.55,0.45-1,1-1h5c0.55,0,1,0.45,1,1V27
		C28.68,27.55,28.23,28,27.68,28z"/>
	<path class="st4" d="M29.5,28h-29C0.22,28,0,27.77,0,27.5l0,0C0,27.23,0.22,27,0.5,27h29c0.27,0,0.5,0.23,0.5,0.5l0,0
		C30,27.77,29.77,28,29.5,28z"/>
</g>
</svg>
