<?xml version="1.0" standalone="no"?><!DOCTYPE svg PUBLIC "-//W3C//DTD SVG 1.1//EN" "http://www.w3.org/Graphics/SVG/1.1/DTD/svg11.dtd"><svg t="1582784819812" class="icon" viewBox="0 0 1024 1024" version="1.1" xmlns="http://www.w3.org/2000/svg" p-id="3646" xmlns:xlink="http://www.w3.org/1999/xlink" width="90" height="90"><defs><style type="text/css"></style></defs><path d="M512 512.4096m-156.8768 0a156.8768 156.8768 0 1 0 313.7536 0 156.8768 156.8768 0 1 0-313.7536 0Z" fill="#FF6D6E" p-id="3647"></path><path d="M513.4336 313.7536h-3.072a40.5504 40.5504 0 0 1-40.3456-40.3456V61.2352c0-22.1184 18.2272-40.3456 40.3456-40.3456h3.072c22.1184 0 40.3456 18.2272 40.3456 40.3456v212.1728c0 22.1184-18.0224 40.3456-40.3456 40.3456zM513.4336 1003.9296h-3.072a40.5504 40.5504 0 0 1-40.3456-40.3456V751.4112c0-22.1184 18.2272-40.3456 40.3456-40.3456h3.072c22.1184 0 40.3456 18.2272 40.3456 40.3456v212.1728c0 22.3232-18.0224 40.3456-40.3456 40.3456zM313.344 510.976v3.072c0 22.1184-18.2272 40.3456-40.3456 40.3456H60.8256A40.5504 40.5504 0 0 1 20.48 514.048v-3.072c0-22.1184 18.2272-40.3456 40.3456-40.3456h212.1728c22.1184 0 40.3456 18.2272 40.3456 40.3456zM1003.52 510.976v3.072c0 22.1184-18.2272 40.3456-40.3456 40.3456H751.0016a40.5504 40.5504 0 0 1-40.3456-40.3456v-3.072c0-22.1184 18.2272-40.3456 40.3456-40.3456h212.1728c22.1184 0 40.3456 18.2272 40.3456 40.3456zM373.76 369.664l-4.5056 4.5056c-14.9504 14.9504-39.7312 14.9504-54.6816 0l-63.6928-63.6928c-14.9504-14.9504-14.9504-39.7312 0-54.6816l4.5056-4.5056c14.9504-14.9504 39.7312-14.9504 54.6816 0l63.6928 63.6928c14.9504 15.1552 14.9504 39.7312 0 54.6816zM773.12 769.024l-4.5056 4.5056c-14.9504 14.9504-39.7312 14.9504-54.6816 0l-63.6928-63.6928c-14.9504-14.9504-14.9504-39.7312 0-54.6816l4.5056-4.5056c14.9504-14.9504 39.7312-14.9504 54.6816 0l63.6928 63.6928c14.9504 14.9504 14.9504 39.7312 0 54.6816zM369.2544 650.6496l4.5056 4.5056c14.9504 14.9504 14.9504 39.7312 0 54.6816l-63.6928 63.6928c-14.9504 14.9504-39.7312 14.9504-54.6816 0l-4.5056-4.5056c-14.9504-14.9504-14.9504-39.7312 0-54.6816l63.6928-63.6928c14.9504-14.9504 39.7312-14.9504 54.6816 0zM768.6144 251.4944l4.5056 4.5056c14.9504 14.9504 14.9504 39.7312 0 54.6816l-63.6928 63.6928c-14.9504 14.9504-39.7312 14.9504-54.6816 0l-4.5056-4.5056c-14.9504-14.9504-14.9504-39.7312 0-54.6816l63.6928-63.6928c14.9504-15.1552 39.5264-15.1552 54.6816 0z" fill="#FF6D6E" p-id="3648"></path></svg>