<?xml version="1.0" standalone="no"?><!DOCTYPE svg PUBLIC "-//W3C//DTD SVG 1.1//EN" "http://www.w3.org/Graphics/SVG/1.1/DTD/svg11.dtd"><svg t="1582784767595" class="icon" viewBox="0 0 1024 1024" version="1.1" xmlns="http://www.w3.org/2000/svg" p-id="2726" width="90" height="90" xmlns:xlink="http://www.w3.org/1999/xlink"><defs><style type="text/css"></style></defs><path d="M512 12.261053c-275.267368 0-498.526316 223.258947-498.526316 498.526315s223.258947 498.526316 498.526316 498.526316 498.526316-223.258947 498.526316-498.526316-223.258947-498.526316-498.526316-498.526315zM326.197895 514.021053c-0.269474 4.446316-0.538947 8.757895-0.538948 13.338947 0 102.938947 83.402105 186.341053 186.341053 186.341053s186.341053-83.402105 186.341053-186.341053c0-4.446316-0.269474-8.892632-0.538948-13.338947h0.538948v-30.72c0-36.783158 29.776842-66.56 66.56-66.56 36.783158 0 66.56 29.776842 66.56 66.56l-0.134737 57.397894h-0.404211c-6.736842 170.172632-146.863158 306.122105-318.922105 306.122106-172.058947 0-312.185263-135.949474-319.191579-306.122106h-0.269474V329.296842c0-36.783158 29.776842-66.56 66.56-66.56 36.783158 0 66.56 29.776842 66.56 66.56v184.589474h0.538948z m39.208421-94.585264c4.311579-6.736842 11.452632-11.048421 19.267368-11.991578 7.949474-0.808421 15.764211 1.886316 21.423158 7.545263l86.366316 86.231579v0.538947h-122.47579c-16.976842 0-29.237895-15.764211-25.6-32.336842 4.042105-17.785263 11.048421-34.762105 21.018948-49.987369z m129.751579 96.336843l-86.231579 86.231579c-5.658947 5.658947-13.608421 8.353684-21.423158 7.545263-7.949474-0.808421-15.090526-5.254737-19.267369-11.991579-9.970526-15.225263-16.976842-32.202105-20.88421-49.987369-3.637895-16.572632 8.623158-32.471579 25.6-32.471579h122.475789l-0.269473 0.673685z m9.431579 9.162105l0.269473 0.40421v122.071579c0 7.949474-3.637895 15.494737-9.835789 20.48-6.197895 4.985263-14.282105 6.871579-22.096842 5.254737-17.785263-3.772632-34.762105-10.778947-50.122105-20.614737-14.282105-9.162105-16.842105-28.968421-4.850527-40.96l86.63579-86.635789z m15.629473 0.134737h0.538948l86.366316 86.366315c5.658947 5.658947 8.353684 13.608421 7.545263 21.423158-0.808421 7.949474-5.254737 15.090526-11.991579 19.267369-15.225263 9.970526-32.202105 16.976842-49.987369 20.88421-16.572632 3.637895-32.471579-8.623158-32.471579-25.6v-122.341052z m198.467369-245.086316a66.169263 66.169263 0 0 1 112.909473 46.753684c0 36.513684-29.642105 66.021053-66.021052 66.021053-26.677895 0-50.795789-16.168421-61.03579-40.825263a65.724632 65.724632 0 0 1 14.147369-71.949474z" fill="#FF6D6E" p-id="2727"></path></svg>