<?xml version="1.0" standalone="no"?><!DOCTYPE svg PUBLIC "-//W3C//DTD SVG 1.1//EN" "http://www.w3.org/Graphics/SVG/1.1/DTD/svg11.dtd"><svg t="1582784802130" class="icon" viewBox="0 0 1024 1024" version="1.1" xmlns="http://www.w3.org/2000/svg" p-id="3268" xmlns:xlink="http://www.w3.org/1999/xlink" width="90" height="90"><defs><style type="text/css"></style></defs><path d="M942.08 540.672c0-110.592-83.3536-213.6064-184.1152-213.6064-44.2368 0-85.8112 30.9248-117.76 61.8496-22.1184 20.6848-157.0816 113.2544-216.064 115.712-127.5904 5.12-245.3504-59.1872-282.2144-192.9216 0 0-17.2032-33.3824-19.6608-87.4496 0-23.1424-14.7456-20.6848-22.1184 0-2.4576 7.7824-14.7456 25.8048-17.2032 69.4272 0 18.0224-2.4576 38.5024 0 61.8496 12.288 285.4912 230.8096 516.9152 483.5328 504.2176 127.5904-5.12 240.4352-82.3296 321.536-182.6816l4.9152-5.12c27.0336-33.5872 49.152-79.872 49.152-131.2768zM379.904 164.864c85.8112-10.24 159.5392 56.5248 166.912 141.5168 2.4576 23.1424 0 43.8272-7.3728 61.8496-63.8976 74.5472-166.912 69.4272-166.912 66.9696-80.896-7.7824-112.8448-48.9472-130.048-84.992 0-2.6624 0-7.7824-2.4576-10.24-7.3728-84.992 54.0672-167.3216 139.8784-175.104z m0 0" fill="#9EA6C1" p-id="3269"></path></svg>