<?xml version="1.0" standalone="no"?><!DOCTYPE svg PUBLIC "-//W3C//DTD SVG 1.1//EN" "http://www.w3.org/Graphics/SVG/1.1/DTD/svg11.dtd"><svg t="1582784807831" class="icon" viewBox="0 0 1024 1024" version="1.1" xmlns="http://www.w3.org/2000/svg" p-id="3394" xmlns:xlink="http://www.w3.org/1999/xlink" width="90" height="90"><defs><style type="text/css"></style></defs><path d="M778.24 917.0944H245.76c-22.528 0-40.96-18.432-40.96-40.96s18.432-40.96 40.96-40.96h532.48c22.528 0 40.96 18.432 40.96 40.96s-18.432 40.96-40.96 40.96zM860.16 96.4608H163.84c-45.056 0-81.92 36.864-81.92 81.92v450.56c0 45.056 36.864 81.92 81.92 81.92h696.32c45.056 0 81.92-36.864 81.92-81.92v-450.56c0-45.056-36.864-81.92-81.92-81.92z m33.9968 350.0032H641.6384v-0.6144l-82.3296-76.3904-179.2 179.2-0.2048-0.2048-0.2048 0.2048-103.8336-103.8336H129.8432v-57.344h170.5984v0.8192l79.4624 79.4624 137.4208-137.4208-0.2048-0.2048 38.912-41.984 1.6384 1.6384 0.2048-0.2048 6.9632 6.9632L664.576 389.12h229.5808v57.344z" fill="#FF6D6E" p-id="3395"></path></svg>