<?xml version="1.0" encoding="utf-8"?>
<!-- Generator: Adobe Illustrator 23.0.0, SVG Export Plug-In . SVG Version: 6.00 Build 0)  -->
<svg version="1.1" id="图层_1" xmlns="http://www.w3.org/2000/svg" xmlns:xlink="http://www.w3.org/1999/xlink" x="0px" y="0px"
	 viewBox="0 0 100 100" style="enable-background:new 0 0 100 100;" xml:space="preserve">
<style type="text/css">
	.st0{fill:url(#SVGID_1_);}
	.st1{fill:none;stroke:url(#SVGID_2_);stroke-width:14;stroke-linecap:round;stroke-miterlimit:10;}
	.st2{fill:none;stroke:url(#SVGID_3_);stroke-width:14;stroke-linecap:round;stroke-miterlimit:10;}
	.st3{fill:#2E3842;}
	.st4{clip-path:url(#SVGID_5_);fill:#FFFFFF;}
</style>
<g>
	<linearGradient id="SVGID_1_" gradientUnits="userSpaceOnUse" x1="49.6848" y1="14.6142" x2="50.3171" y2="85.5994">
		<stop  offset="0" style="stop-color:#29323C"/>
		<stop  offset="1" style="stop-color:#485563"/>
	</linearGradient>
	<circle class="st0" cx="50" cy="50" r="35.39"/>
	<g>
		
			<linearGradient id="SVGID_2_" gradientUnits="userSpaceOnUse" x1="26.5909" y1="81.102" x2="86.7447" y2="20.9482" gradientTransform="matrix(0.7071 0.7071 -0.7071 0.7071 52.4749 -19.6856)">
			<stop  offset="0" style="stop-color:#29323C"/>
			<stop  offset="1" style="stop-color:#485563"/>
		</linearGradient>
		<path class="st1" d="M79.81,20.93c16.26,16.26,16.26,42.62,0,58.88s-42.62,16.26-58.88,0"/>
		
			<linearGradient id="SVGID_3_" gradientUnits="userSpaceOnUse" x1="62.8113" y1="2.3931" x2="62.8113" y2="99.6572" gradientTransform="matrix(-0.7071 -0.7071 -0.7071 0.7071 115.4074 43.247)">
			<stop  offset="0" style="stop-color:#29323C"/>
			<stop  offset="1" style="stop-color:#485563"/>
		</linearGradient>
		<path class="st2" d="M79.07,20.19c-16.26-16.26-42.62-16.26-58.88,0s-16.26,42.62,0,58.88"/>
		<circle class="st3" cx="20.56" cy="79.44" r="7.29"/>
	</g>
	<g>
		<g>
			<defs>
				<rect id="SVGID_4_" x="30.3" y="34.35" width="40" height="36"/>
			</defs>
			<clipPath id="SVGID_5_">
				<use xlink:href="#SVGID_4_"  style="overflow:visible;"/>
			</clipPath>
			<path class="st4" d="M50.28,70.28c0.01,0,0.01,0,0.01,0.01c0.02,0.01,0.04,0.01,0.05,0.01c0.01,0,0.02,0.01,0.03,0.01
				c0.01,0,0.03,0.01,0.05,0.01c0.02,0,0.04,0,0.06,0.01h0.03c0.02,0,0.04,0,0.06-0.01c0.01,0,0.03-0.01,0.05-0.01
				c0.01,0,0.02,0,0.03-0.01c0.02-0.01,0.04-0.01,0.06-0.01c0.01,0,0.01,0,0.01-0.01c0.34-0.06,0.64-0.24,0.83-0.51l18.43-21.95
				c0.07-0.07,0.12-0.15,0.17-0.23c0.21-0.39,0.18-0.86-0.09-1.22L61.32,34.9c-0.23-0.33-0.63-0.52-1.05-0.52H40.29
				c-0.42,0-0.82,0.2-1.05,0.53l-8.71,11.45c-0.27,0.36-0.31,0.83-0.09,1.22c0.01,0.01,0.01,0.02,0.02,0.03
				c0.01,0.01,0.01,0.01,0.01,0.02c0.01,0.01,0.02,0.02,0.03,0.04c0.01,0.01,0.01,0.02,0.01,0.02l0.03,0.03
				c0.01,0.01,0.01,0.01,0.01,0.02l0.03,0.04l18.86,21.98C49.64,70.04,49.94,70.22,50.28,70.28L50.28,70.28z M39.55,46.17
				c0.52-0.39,1.28-0.33,1.72,0.14l9.2,10.8l8.81-10.79c0.43-0.49,1.19-0.57,1.72-0.19c0.53,0.38,0.65,1.09,0.27,1.61l-9.79,11.98
				l-0.06,0.07l-0.02,0.02l-0.03,0.02l-0.04,0.04c-0.17,0.15-0.39,0.25-0.63,0.29H50.7c-0.02,0.01-0.04,0.01-0.06,0.01
				c-0.01,0-0.02,0-0.02,0.01c-0.01,0-0.03,0.01-0.05,0.01c-0.02,0-0.04,0-0.06,0.01h-0.03c-0.02,0-0.04,0-0.06-0.01
				c-0.01,0-0.03-0.01-0.05-0.01c-0.01,0-0.02,0-0.02-0.01c-0.34-0.03-0.65-0.2-0.85-0.46L39.32,47.77
				C38.93,47.26,39.03,46.56,39.55,46.17L39.55,46.17z M39.55,46.17"/>
		</g>
	</g>
</g>
</svg>
